<!-- Generator: Adobe Illustrator 18.1.1, SVG Export Plug-In  -->
<svg version="1.1"
	 xmlns="http://www.w3.org/2000/svg" xmlns:xlink="http://www.w3.org/1999/xlink" xmlns:a="http://ns.adobe.com/AdobeSVGViewerExtensions/3.0/"
	 x="0px" y="0px" width="143.374px" height="87.959px" viewBox="0 0 143.374 87.959" enable-background="new 0 0 143.374 87.959"
	 xml:space="preserve">
<defs>
</defs>
<g>
	<g>
		<path fill="#4F6A97" d="M98.827,74.045c-0.358-0.009-0.695-0.083-1.008-0.221c-0.312-0.138-0.584-0.324-0.814-0.559
			c-0.229-0.234-0.407-0.511-0.531-0.828s-0.178-0.66-0.159-1.028c0.01-0.359,0.083-0.695,0.222-1.008
			c0.138-0.312,0.314-0.601,0.531-0.863c0.216-0.262,0.467-0.492,0.752-0.69s0.584-0.366,0.897-0.504
			c0.552-0.239,1.132-0.402,1.739-0.49c0.607-0.087,1.215-0.122,1.822-0.104c0.35,0.009,0.697,0.044,1.042,0.104
			c0.345,0.06,0.677,0.154,0.994,0.283s0.614,0.294,0.891,0.497c0.275,0.202,0.524,0.446,0.745,0.731
			c0.212,0.276,0.382,0.578,0.511,0.904s0.216,0.663,0.262,1.007c0.046,0.345,0.051,0.69,0.015,1.036
			c-0.037,0.345-0.111,0.683-0.222,1.015c-0.212,0.644-0.543,1.219-0.993,1.725c-0.451,0.506-0.967,0.92-1.547,1.243
			c-0.606,0.34-1.265,0.58-1.974,0.718c-0.156,0.037-0.317,0.067-0.483,0.09c-0.165,0.023-0.336,0.039-0.511,0.048
			c-0.055,0-0.129,0.007-0.221,0.021s-0.161-0.002-0.207-0.048s-0.058-0.099-0.034-0.159c0.022-0.06,0.066-0.09,0.131-0.09
			c0.672,0.019,1.318-0.092,1.939-0.331s1.162-0.607,1.622-1.104c0.304-0.332,0.563-0.706,0.78-1.125
			c0.216-0.418,0.377-0.856,0.482-1.312c0.106-0.456,0.152-0.913,0.139-1.374c-0.014-0.46-0.097-0.897-0.249-1.311
			c-0.151-0.415-0.377-0.789-0.676-1.125c-0.3-0.336-0.688-0.605-1.167-0.808c-0.57-0.239-1.178-0.364-1.822-0.373
			c-0.644-0.009-1.265,0.051-1.863,0.18c-0.331,0.064-0.658,0.159-0.979,0.283c-0.322,0.125-0.626,0.279-0.911,0.463
			c-0.286,0.184-0.543,0.405-0.773,0.662c-0.23,0.258-0.409,0.552-0.538,0.884c-0.083,0.212-0.139,0.433-0.166,0.663
			s-0.025,0.46,0.007,0.69c0.032,0.23,0.095,0.451,0.187,0.663c0.092,0.212,0.221,0.405,0.387,0.58
			c0.304,0.331,0.686,0.547,1.146,0.648l0.345,0.042c0.047,0,0.1-0.002,0.159-0.007c0.06-0.004,0.112,0.002,0.159,0.021
			c0.073,0.028,0.101,0.079,0.082,0.152C98.946,74.008,98.9,74.045,98.827,74.045z M101.837,70.249
			c-0.139,0.746-0.313,1.477-0.525,2.195s-0.428,1.436-0.648,2.153c-0.221,0.718-0.446,1.431-0.677,2.14
			c-0.229,0.709-0.469,1.417-0.718,2.126c-0.129,0.35-0.255,0.702-0.379,1.056c-0.125,0.354-0.256,0.706-0.394,1.056l-0.414,0.98
			c-0.028,0.055-0.058,0.124-0.09,0.207c-0.032,0.083-0.069,0.163-0.11,0.241c-0.042,0.078-0.088,0.147-0.139,0.208
			c-0.05,0.06-0.112,0.094-0.186,0.104c-0.093,0.009-0.161-0.005-0.207-0.042c-0.047-0.037-0.076-0.088-0.09-0.152
			c-0.014-0.064-0.019-0.134-0.014-0.207c0.004-0.074,0.011-0.138,0.021-0.193c0.036-0.184,0.073-0.366,0.11-0.545
			c0.036-0.179,0.078-0.361,0.124-0.545c0.083-0.369,0.175-0.732,0.276-1.091l0.304-1.077c0.267-0.865,0.538-1.723,0.814-2.574
			c0.275-0.851,0.561-1.705,0.855-2.561c0.147-0.432,0.297-0.858,0.448-1.277c0.152-0.418,0.312-0.839,0.477-1.263l0.234-0.58
			c0.047-0.101,0.09-0.209,0.132-0.324c0.041-0.115,0.094-0.219,0.158-0.311c0.056-0.074,0.122-0.118,0.2-0.131
			s0.152-0.004,0.221,0.028c0.069,0.032,0.127,0.081,0.173,0.145S101.854,70.157,101.837,70.249z"/>
		<path fill="#4F6A97" d="M106.337,80.271c-0.019-0.258-0.01-0.516,0.027-0.773c0.037-0.257,0.083-0.511,0.138-0.759
			c0.064-0.313,0.122-0.624,0.173-0.932c0.051-0.308,0.108-0.619,0.173-0.932c0.046-0.239,0.099-0.472,0.158-0.697
			c0.06-0.225,0.122-0.458,0.187-0.697c0.184-0.718,0.377-1.434,0.58-2.146c0.202-0.713,0.418-1.429,0.648-2.146
			c0.119-0.359,0.244-0.718,0.373-1.077c0.128-0.359,0.262-0.713,0.4-1.063c0.128-0.322,0.267-0.642,0.414-0.959
			c0.146-0.317,0.326-0.619,0.538-0.904c0.083-0.11,0.177-0.232,0.283-0.366c0.105-0.133,0.221-0.257,0.345-0.373
			s0.256-0.209,0.394-0.283s0.285-0.11,0.441-0.11c0.147,0,0.258,0.037,0.331,0.11c0.074,0.074,0.122,0.166,0.146,0.276
			c0.022,0.11,0.027,0.23,0.014,0.359s-0.034,0.244-0.062,0.345c-0.082,0.35-0.19,0.686-0.324,1.008
			c-0.133,0.322-0.269,0.645-0.407,0.966c-0.156,0.35-0.317,0.69-0.482,1.021c-0.166,0.332-0.337,0.667-0.512,1.008
			c-0.248,0.479-0.494,0.95-0.738,1.415c-0.244,0.464-0.494,0.932-0.752,1.401c-0.092,0.322-0.18,0.646-0.263,0.973
			c-0.082,0.327-0.165,0.651-0.248,0.973l-0.29,1.146c0.147-0.267,0.299-0.532,0.456-0.794c0.156-0.262,0.321-0.527,0.496-0.794
			c0.185-0.294,0.382-0.582,0.594-0.862s0.446-0.541,0.704-0.78c0.083-0.073,0.17-0.152,0.263-0.234
			c0.092-0.083,0.19-0.157,0.297-0.221c0.105-0.064,0.216-0.115,0.331-0.152c0.115-0.037,0.232-0.046,0.352-0.027
			c0.166,0.027,0.29,0.108,0.373,0.242s0.138,0.283,0.166,0.448c0.027,0.166,0.036,0.338,0.027,0.518
			c-0.01,0.179-0.023,0.329-0.042,0.448c-0.055,0.35-0.138,0.695-0.248,1.036s-0.23,0.676-0.359,1.007
			c-0.129,0.332-0.257,0.661-0.386,0.987s-0.254,0.66-0.373,1c-0.056,0.138-0.108,0.281-0.159,0.428
			c-0.05,0.147-0.075,0.299-0.075,0.456c-0.01,0.156,0.046,0.25,0.165,0.283c0.12,0.032,0.244,0.04,0.373,0.021
			c0.166-0.037,0.319-0.102,0.463-0.193c0.143-0.092,0.273-0.198,0.393-0.317c0.12-0.12,0.23-0.249,0.332-0.387
			c0.101-0.138,0.197-0.271,0.289-0.4c0.102-0.138,0.193-0.278,0.276-0.421s0.161-0.288,0.234-0.435
			c0.047-0.073,0.083-0.143,0.111-0.207c0.027-0.064,0.06-0.133,0.097-0.207c0.036-0.073,0.068-0.152,0.096-0.234
			c0.028-0.083,0.064-0.157,0.111-0.221c0.036-0.046,0.082-0.066,0.138-0.062c0.055,0.005,0.097,0.03,0.124,0.076
			s0.034,0.085,0.021,0.117s-0.029,0.071-0.048,0.117c-0.037,0.083-0.076,0.164-0.117,0.242c-0.042,0.078-0.086,0.159-0.132,0.242
			c-0.156,0.294-0.326,0.584-0.511,0.87c-0.184,0.285-0.382,0.557-0.593,0.814c-0.102,0.12-0.212,0.241-0.332,0.366
			c-0.119,0.124-0.243,0.237-0.372,0.338c-0.129,0.102-0.268,0.187-0.414,0.255c-0.147,0.069-0.304,0.108-0.47,0.118
			c-0.185,0.018-0.341-0.009-0.47-0.083s-0.234-0.17-0.317-0.29c-0.083-0.119-0.145-0.255-0.187-0.407
			c-0.041-0.152-0.062-0.306-0.062-0.463c-0.019-0.34,0.012-0.676,0.09-1.007c0.078-0.332,0.168-0.658,0.269-0.98
			c0.083-0.285,0.178-0.566,0.283-0.842s0.214-0.547,0.324-0.814l0.332-0.787c0.073-0.184,0.158-0.373,0.255-0.566
			c0.097-0.193,0.159-0.386,0.187-0.58c0-0.046-0.034-0.069-0.104-0.069s-0.146,0.014-0.228,0.042
			c-0.083,0.027-0.164,0.055-0.242,0.083c-0.078,0.028-0.122,0.046-0.131,0.055c-0.185,0.129-0.352,0.283-0.504,0.462
			c-0.151,0.18-0.297,0.357-0.435,0.532c-0.313,0.423-0.601,0.86-0.863,1.311c-0.262,0.451-0.513,0.911-0.752,1.381
			c-0.12,0.23-0.237,0.462-0.352,0.697c-0.115,0.235-0.224,0.472-0.325,0.711l-0.014,0.028l-0.068,0.166
			c-0.019,0.064-0.042,0.129-0.069,0.193s-0.061,0.124-0.097,0.179l-0.014,0.042c-0.046,0.083-0.09,0.166-0.131,0.249
			c-0.042,0.083-0.09,0.166-0.146,0.249c-0.037,0.046-0.076,0.097-0.117,0.152s-0.085,0.106-0.131,0.152s-0.108,0.073-0.187,0.083
			S106.345,80.372,106.337,80.271z M110.077,71.243c0.175-0.34,0.341-0.679,0.497-1.015s0.312-0.679,0.47-1.028
			c0.138-0.332,0.271-0.665,0.4-1.001c0.128-0.336,0.229-0.679,0.304-1.028c0.009-0.037,0.021-0.092,0.034-0.166
			s0.022-0.149,0.027-0.228c0.005-0.078,0-0.147-0.014-0.207c-0.014-0.06-0.048-0.094-0.104-0.104
			c-0.064-0.018-0.129,0.012-0.193,0.09s-0.11,0.14-0.138,0.186c-0.175,0.267-0.311,0.555-0.407,0.863
			c-0.097,0.309-0.21,0.61-0.339,0.904c-0.312,0.773-0.598,1.551-0.855,2.333s-0.502,1.578-0.731,2.388
			c0.184-0.322,0.361-0.649,0.531-0.98C109.729,71.919,109.902,71.583,110.077,71.243z"/>
		<path fill="#4F6A97" d="M121.148,77.178c-0.166,0.294-0.334,0.591-0.504,0.89c-0.17,0.299-0.356,0.589-0.559,0.87
			c-0.203,0.281-0.419,0.543-0.649,0.787c-0.229,0.244-0.487,0.458-0.772,0.642c-0.102,0.073-0.207,0.135-0.317,0.186
			c-0.111,0.051-0.219,0.081-0.325,0.09c-0.105,0.009-0.209-0.007-0.311-0.048s-0.197-0.122-0.29-0.242
			c-0.101-0.119-0.182-0.257-0.241-0.414c-0.06-0.156-0.104-0.319-0.131-0.49s-0.044-0.34-0.049-0.511s-0.002-0.333,0.007-0.49
			c0-0.064,0.003-0.126,0.007-0.187c0.005-0.06,0.012-0.126,0.021-0.2c-0.129,0.203-0.258,0.398-0.387,0.587s-0.263,0.375-0.4,0.559
			c-0.147,0.193-0.338,0.4-0.573,0.621c-0.234,0.221-0.482,0.391-0.745,0.511s-0.52,0.159-0.773,0.117
			c-0.253-0.042-0.476-0.228-0.669-0.559c-0.175-0.294-0.283-0.612-0.324-0.952c-0.042-0.34-0.039-0.688,0.007-1.042
			c0.046-0.354,0.122-0.699,0.228-1.035s0.223-0.651,0.352-0.946c0.129-0.276,0.281-0.561,0.456-0.855s0.375-0.566,0.601-0.814
			s0.476-0.46,0.752-0.635s0.58-0.29,0.911-0.345c0.35-0.055,0.667,0,0.952,0.166c0.285,0.166,0.479,0.419,0.58,0.759
			c0.019,0.074,0.032,0.147,0.042,0.221l0.027,0.221l0.165-0.276c0.064-0.11,0.146-0.235,0.242-0.373
			c0.097-0.138,0.204-0.267,0.324-0.387c0.119-0.12,0.248-0.219,0.387-0.297c0.138-0.078,0.285-0.112,0.441-0.104
			c0.119,0.009,0.168,0.062,0.146,0.159c-0.023,0.097-0.049,0.177-0.076,0.242c-0.056,0.138-0.113,0.274-0.173,0.407
			s-0.112,0.265-0.158,0.394c-0.147,0.396-0.288,0.789-0.422,1.18c-0.133,0.391-0.26,0.793-0.379,1.208l-0.221,0.746
			c-0.074,0.249-0.139,0.502-0.193,0.759c-0.028,0.129-0.061,0.265-0.097,0.407c-0.037,0.143-0.069,0.285-0.097,0.428
			c-0.028,0.143-0.047,0.286-0.056,0.428s-0.005,0.283,0.014,0.421c0.028,0.147,0.104,0.228,0.229,0.242
			c0.124,0.014,0.246-0.007,0.365-0.062c0.212-0.092,0.407-0.241,0.587-0.448s0.338-0.398,0.477-0.573
			c0.165-0.211,0.321-0.43,0.469-0.655s0.285-0.458,0.414-0.697c0.074-0.129,0.146-0.253,0.214-0.373
			c0.069-0.12,0.141-0.244,0.214-0.373c0.019-0.037,0.046-0.06,0.083-0.069s0.074-0.004,0.11,0.014
			c0.037,0.019,0.062,0.046,0.076,0.083S121.167,77.142,121.148,77.178z M117.836,75.122c0.027-0.129,0.041-0.267,0.041-0.414
			c0-0.147-0.021-0.29-0.062-0.428c-0.041-0.138-0.101-0.262-0.179-0.373c-0.079-0.11-0.178-0.193-0.297-0.249
			c-0.268-0.12-0.516-0.115-0.746,0.014c-0.229,0.129-0.423,0.299-0.579,0.511c-0.193,0.276-0.368,0.568-0.524,0.877
			c-0.157,0.308-0.3,0.614-0.429,0.917c-0.147,0.332-0.28,0.665-0.4,1.001c-0.119,0.336-0.229,0.679-0.331,1.028
			c-0.046,0.157-0.088,0.313-0.124,0.469c-0.037,0.157-0.069,0.313-0.097,0.47c-0.037,0.156-0.066,0.327-0.09,0.511
			s0.007,0.35,0.09,0.497c0.083,0.138,0.187,0.214,0.311,0.228s0.253-0.007,0.387-0.062c0.133-0.055,0.262-0.126,0.387-0.214
			c0.124-0.087,0.223-0.167,0.297-0.241c0.248-0.239,0.474-0.504,0.676-0.794c0.202-0.29,0.396-0.582,0.58-0.876l0.414-0.746
			c0.073-0.368,0.166-0.729,0.276-1.083C117.546,75.81,117.678,75.462,117.836,75.122z"/>
		<path fill="#4F6A97" d="M120.775,77.261l0.842-1.809l0.441-0.938c0.147-0.313,0.276-0.63,0.387-0.953
			c-0.185-0.221-0.334-0.453-0.448-0.697c-0.115-0.244-0.127-0.513-0.035-0.807c0.046-0.175,0.141-0.325,0.283-0.449
			c0.143-0.125,0.306-0.177,0.49-0.159c0.193,0.009,0.347,0.085,0.462,0.228c0.115,0.143,0.173,0.306,0.173,0.49
			c0,0.12-0.019,0.234-0.056,0.345c-0.036,0.11-0.078,0.221-0.124,0.331l0.124,0.332c0.047,0.166,0.095,0.331,0.146,0.497
			c0.051,0.166,0.112,0.327,0.187,0.483c0.064,0.147,0.136,0.29,0.214,0.428s0.145,0.281,0.2,0.428
			c0.092,0.239,0.122,0.501,0.09,0.787s-0.071,0.548-0.117,0.787c-0.074,0.35-0.157,0.69-0.249,1.021
			c-0.092,0.332-0.193,0.658-0.304,0.98c-0.019,0.064-0.06,0.175-0.124,0.331c-0.064,0.157-0.12,0.317-0.166,0.483
			c-0.046,0.166-0.068,0.317-0.068,0.456c0,0.138,0.05,0.221,0.151,0.248c0.129,0.037,0.253,0.037,0.373,0
			c0.119-0.037,0.234-0.092,0.345-0.166c0.11-0.073,0.212-0.159,0.304-0.255s0.17-0.191,0.234-0.283
			c0.193-0.276,0.364-0.566,0.511-0.87c0.147-0.304,0.276-0.617,0.387-0.939c0.009-0.018,0.025-0.069,0.049-0.152
			c0.022-0.083,0.05-0.161,0.082-0.234s0.071-0.126,0.118-0.159c0.046-0.032,0.092-0.007,0.138,0.076
			c0.019,0.037,0.021,0.087,0.007,0.152s-0.034,0.131-0.062,0.2c-0.027,0.069-0.058,0.136-0.089,0.2
			c-0.033,0.064-0.054,0.115-0.062,0.152c-0.129,0.313-0.267,0.617-0.414,0.911s-0.327,0.575-0.538,0.842
			c-0.166,0.212-0.359,0.414-0.58,0.607s-0.475,0.308-0.76,0.345c-0.146,0.018-0.275,0.004-0.386-0.042
			c-0.11-0.046-0.203-0.113-0.276-0.2c-0.074-0.087-0.134-0.191-0.18-0.311s-0.078-0.244-0.097-0.373
			c-0.046-0.35-0.044-0.699,0.007-1.049c0.051-0.35,0.127-0.69,0.229-1.021c0.101-0.322,0.216-0.642,0.345-0.959
			s0.263-0.632,0.4-0.945c0.083-0.203,0.126-0.366,0.131-0.49c0.005-0.124-0.048-0.288-0.158-0.49
			c-0.074-0.138-0.168-0.274-0.283-0.407s-0.237-0.27-0.366-0.407c-0.147,0.322-0.292,0.64-0.435,0.952
			c-0.143,0.313-0.292,0.626-0.448,0.939l-0.276,0.58c-0.092,0.193-0.185,0.391-0.276,0.594c-0.027,0.074-0.064,0.177-0.11,0.311
			s-0.105,0.214-0.18,0.241c-0.064,0.028-0.117,0.017-0.158-0.034C120.754,77.369,120.747,77.316,120.775,77.261z"/>
		<path fill="#4F6A97" d="M124.792,80.243l1.657-6.612c0.027-0.102,0.06-0.209,0.097-0.325c0.036-0.115,0.085-0.218,0.145-0.311
			c0.06-0.092,0.138-0.156,0.234-0.193c0.097-0.037,0.219-0.027,0.366,0.028c0.138,0.055,0.229,0.126,0.276,0.214
			c0.046,0.087,0.068,0.182,0.068,0.283c0,0.101-0.019,0.209-0.055,0.324c-0.037,0.115-0.069,0.219-0.097,0.311l-1.201,3.7
			c0.11-0.212,0.223-0.426,0.338-0.642s0.232-0.43,0.353-0.642c0.175-0.312,0.356-0.621,0.545-0.925s0.389-0.598,0.601-0.883
			c0.193-0.249,0.419-0.508,0.677-0.78c0.257-0.271,0.538-0.462,0.842-0.573c0.248-0.092,0.472-0.078,0.669,0.042
			c0.198,0.12,0.339,0.299,0.422,0.539c0.11,0.322,0.156,0.658,0.138,1.008c-0.019,0.35-0.064,0.686-0.138,1.007
			c-0.019,0.102-0.04,0.198-0.062,0.29c-0.023,0.092-0.048,0.184-0.076,0.276c0.185-0.304,0.373-0.6,0.566-0.89
			s0.4-0.573,0.621-0.849c0.193-0.239,0.404-0.487,0.635-0.745s0.483-0.456,0.76-0.594c0.238-0.12,0.457-0.138,0.655-0.055
			s0.333,0.258,0.407,0.524c0.092,0.322,0.105,0.649,0.041,0.98c-0.064,0.332-0.143,0.649-0.234,0.953
			c-0.083,0.285-0.175,0.566-0.276,0.842c-0.101,0.276-0.212,0.547-0.331,0.814l-0.511,1.297l-0.151,0.387
			c-0.064,0.156-0.11,0.315-0.139,0.476c-0.027,0.161-0.021,0.297,0.021,0.407c0.042,0.11,0.159,0.166,0.353,0.166
			c0.156,0,0.306-0.037,0.448-0.11s0.274-0.163,0.394-0.269c0.12-0.106,0.23-0.223,0.331-0.352c0.102-0.129,0.193-0.253,0.276-0.373
			c0.377-0.524,0.713-1.095,1.008-1.711c0.019-0.046,0.037-0.097,0.056-0.152c0.018-0.055,0.05-0.092,0.096-0.11
			c0.047-0.028,0.095-0.03,0.146-0.007s0.08,0.058,0.09,0.104c0.019,0.055,0.011,0.108-0.021,0.159
			c-0.033,0.051-0.058,0.099-0.076,0.145l-0.234,0.483c-0.157,0.295-0.329,0.587-0.519,0.876c-0.188,0.29-0.397,0.559-0.628,0.808
			c-0.11,0.12-0.229,0.239-0.358,0.359s-0.265,0.226-0.407,0.317c-0.143,0.092-0.295,0.164-0.456,0.214
			c-0.161,0.05-0.329,0.062-0.504,0.034c-0.184-0.027-0.329-0.094-0.435-0.2c-0.105-0.105-0.187-0.232-0.241-0.379
			c-0.056-0.147-0.09-0.304-0.104-0.469c-0.014-0.166-0.017-0.322-0.007-0.47c0.009-0.35,0.055-0.694,0.138-1.035
			c0.083-0.34,0.182-0.681,0.297-1.021c0.115-0.34,0.241-0.674,0.38-1c0.138-0.327,0.271-0.651,0.4-0.974
			c0.073-0.184,0.149-0.366,0.228-0.545c0.078-0.18,0.145-0.361,0.2-0.545c0.027-0.092,0.034-0.156,0.021-0.193
			c-0.014-0.037-0.076-0.046-0.187-0.027c-0.175,0.019-0.338,0.083-0.49,0.193c-0.151,0.11-0.292,0.237-0.421,0.379
			s-0.248,0.294-0.358,0.456s-0.212,0.306-0.304,0.435c-0.239,0.332-0.465,0.672-0.677,1.021c-0.212,0.35-0.414,0.7-0.607,1.049
			l-0.428,0.801c-0.129,0.322-0.263,0.64-0.4,0.952c-0.138,0.313-0.299,0.617-0.483,0.911c-0.073,0.129-0.149,0.253-0.228,0.373
			s-0.168,0.234-0.27,0.345c-0.101,0.101-0.219,0.129-0.352,0.083c-0.134-0.046-0.209-0.138-0.228-0.276
			c-0.01-0.12,0.007-0.246,0.048-0.38c0.042-0.133,0.076-0.255,0.104-0.366c0.092-0.34,0.202-0.69,0.331-1.049
			c0.111-0.294,0.219-0.596,0.325-0.904c0.105-0.309,0.209-0.614,0.311-0.918c0.083-0.239,0.165-0.481,0.248-0.725
			c0.083-0.244,0.161-0.49,0.234-0.738c0.074-0.239,0.154-0.488,0.242-0.746c0.087-0.257,0.122-0.506,0.104-0.745
			c-0.019-0.138-0.078-0.209-0.18-0.214c-0.102-0.005-0.214,0.021-0.338,0.076s-0.246,0.124-0.366,0.207
			c-0.119,0.083-0.198,0.143-0.234,0.18c-0.239,0.239-0.46,0.503-0.663,0.793c-0.202,0.29-0.396,0.582-0.579,0.876
			c-0.258,0.414-0.5,0.84-0.725,1.277c-0.226,0.438-0.444,0.877-0.656,1.318c-0.11,0.24-0.219,0.474-0.324,0.704
			s-0.209,0.465-0.311,0.704c-0.027,0.064-0.053,0.133-0.076,0.207c-0.022,0.074-0.048,0.147-0.076,0.221l-0.082,0.221
			c-0.028,0.101-0.083,0.172-0.166,0.214s-0.163,0.055-0.241,0.042c-0.078-0.014-0.143-0.053-0.193-0.118
			S124.764,80.353,124.792,80.243z"/>
		<path fill="#4F6A97" d="M143.358,77.178c-0.166,0.294-0.334,0.591-0.504,0.89c-0.17,0.299-0.356,0.589-0.559,0.87
			c-0.203,0.281-0.419,0.543-0.649,0.787c-0.229,0.244-0.487,0.458-0.772,0.642c-0.102,0.073-0.207,0.135-0.317,0.186
			c-0.111,0.051-0.219,0.081-0.325,0.09c-0.105,0.009-0.209-0.007-0.311-0.048s-0.197-0.122-0.29-0.242
			c-0.101-0.119-0.182-0.257-0.241-0.414c-0.06-0.156-0.104-0.319-0.131-0.49s-0.044-0.34-0.049-0.511s-0.002-0.333,0.007-0.49
			c0-0.064,0.003-0.126,0.007-0.187c0.005-0.06,0.012-0.126,0.021-0.2c-0.129,0.203-0.258,0.398-0.387,0.587s-0.263,0.375-0.4,0.559
			c-0.147,0.193-0.338,0.4-0.573,0.621c-0.234,0.221-0.482,0.391-0.745,0.511s-0.52,0.159-0.773,0.117
			c-0.253-0.042-0.476-0.228-0.669-0.559c-0.175-0.294-0.283-0.612-0.324-0.952c-0.042-0.34-0.039-0.688,0.007-1.042
			c0.046-0.354,0.122-0.699,0.228-1.035s0.223-0.651,0.352-0.946c0.129-0.276,0.281-0.561,0.456-0.855s0.375-0.566,0.601-0.814
			s0.476-0.46,0.752-0.635s0.58-0.29,0.911-0.345c0.35-0.055,0.667,0,0.952,0.166c0.285,0.166,0.479,0.419,0.58,0.759
			c0.019,0.074,0.032,0.147,0.042,0.221l0.027,0.221l0.165-0.276c0.064-0.11,0.146-0.235,0.242-0.373
			c0.097-0.138,0.204-0.267,0.324-0.387c0.119-0.12,0.248-0.219,0.387-0.297c0.138-0.078,0.285-0.112,0.441-0.104
			c0.119,0.009,0.168,0.062,0.146,0.159c-0.023,0.097-0.049,0.177-0.076,0.242c-0.056,0.138-0.113,0.274-0.173,0.407
			s-0.112,0.265-0.158,0.394c-0.147,0.396-0.288,0.789-0.422,1.18c-0.133,0.391-0.26,0.793-0.379,1.208l-0.221,0.746
			c-0.074,0.249-0.139,0.502-0.193,0.759c-0.028,0.129-0.061,0.265-0.097,0.407c-0.037,0.143-0.069,0.285-0.097,0.428
			c-0.028,0.143-0.047,0.286-0.056,0.428s-0.005,0.283,0.014,0.421c0.028,0.147,0.104,0.228,0.229,0.242
			c0.124,0.014,0.246-0.007,0.365-0.062c0.212-0.092,0.407-0.241,0.587-0.448s0.338-0.398,0.477-0.573
			c0.165-0.211,0.321-0.43,0.469-0.655s0.285-0.458,0.414-0.697c0.074-0.129,0.146-0.253,0.214-0.373
			c0.069-0.12,0.141-0.244,0.214-0.373c0.019-0.037,0.046-0.06,0.083-0.069s0.074-0.004,0.11,0.014
			c0.037,0.019,0.062,0.046,0.076,0.083S143.377,77.142,143.358,77.178z M140.046,75.122c0.027-0.129,0.041-0.267,0.041-0.414
			c0-0.147-0.021-0.29-0.062-0.428c-0.041-0.138-0.101-0.262-0.179-0.373c-0.079-0.11-0.178-0.193-0.297-0.249
			c-0.268-0.12-0.516-0.115-0.746,0.014c-0.229,0.129-0.423,0.299-0.579,0.511c-0.193,0.276-0.368,0.568-0.524,0.877
			c-0.157,0.308-0.3,0.614-0.429,0.917c-0.147,0.332-0.28,0.665-0.4,1.001c-0.119,0.336-0.229,0.679-0.331,1.028
			c-0.046,0.157-0.088,0.313-0.124,0.469c-0.037,0.157-0.069,0.313-0.097,0.47c-0.037,0.156-0.066,0.327-0.09,0.511
			s0.007,0.35,0.09,0.497c0.083,0.138,0.187,0.214,0.311,0.228s0.253-0.007,0.387-0.062c0.133-0.055,0.262-0.126,0.387-0.214
			c0.124-0.087,0.223-0.167,0.297-0.241c0.248-0.239,0.474-0.504,0.676-0.794c0.202-0.29,0.396-0.582,0.58-0.876l0.414-0.746
			c0.073-0.368,0.166-0.729,0.276-1.083C139.756,75.81,139.888,75.462,140.046,75.122z"/>
	</g>
	<path fill="#D4D9E6" d="M37.592,0c-24.324,0,0,42.484,0,42.484S64.475,0,37.592,0"/>
	<g>
		<path fill="#231F20" d="M50.27,49.622l-1.256,1.189c-0.903-0.889-1.893-1.562-2.968-2.021c-1.076-0.458-2.125-0.688-3.146-0.688
			c-1.271,0-2.479,0.312-3.629,0.936s-2.04,1.471-2.671,2.539c-0.632,1.068-0.947,2.197-0.947,3.387
			c0,1.219,0.326,2.377,0.979,3.476c0.654,1.098,1.558,1.96,2.71,2.588c1.153,0.628,2.416,0.941,3.789,0.941
			c1.667,0,3.077-0.47,4.229-1.41c1.153-0.94,1.836-2.159,2.049-3.657h-5.166v-1.564h6.983c-0.015,2.504-0.758,4.493-2.23,5.965
			c-1.472,1.472-3.441,2.208-5.909,2.208c-2.996,0-5.368-1.021-7.115-3.062c-1.344-1.571-2.016-3.389-2.016-5.452
			c0-1.535,0.385-2.963,1.156-4.285s1.828-2.355,3.172-3.101s2.864-1.118,4.561-1.118c1.373,0,2.665,0.248,3.877,0.744
			S49.117,48.528,50.27,49.622z"/>
		<path fill="#231F20" d="M53.036,46.901h1.862l4.146,6.682l4.08-6.682h1.873l-5.133,8.459v7.743h-1.598v-7.743L53.036,46.901z"/>
		<path fill="#231F20" d="M67.674,63.104V46.901h0.353l10.783,12.42v-12.42h1.598v16.203h-0.363L69.348,50.835v12.269H67.674z"/>
		<path fill="#231F20" d="M84.361,46.901h9.286v1.586H85.98v5.078h7.601v1.586H85.98v6.367h7.601v1.586h-9.22V46.901z"/>
		<path fill="#231F20" d="M111.534,49.908l-1.277,0.98c-0.705-0.918-1.552-1.614-2.539-2.087s-2.072-0.71-3.255-0.71
			c-1.292,0-2.489,0.311-3.591,0.931c-1.102,0.621-1.955,1.454-2.561,2.5c-0.606,1.046-0.909,2.223-0.909,3.53
			c0,1.976,0.678,3.624,2.032,4.946c1.355,1.322,3.064,1.982,5.128,1.982c2.269,0,4.167-0.888,5.694-2.666l1.277,0.969
			c-0.808,1.028-1.815,1.823-3.023,2.385c-1.208,0.562-2.557,0.843-4.048,0.843c-2.834,0-5.07-0.944-6.708-2.831
			c-1.373-1.593-2.06-3.517-2.06-5.771c0-2.372,0.832-4.368,2.495-5.987s3.746-2.429,6.251-2.429c1.513,0,2.878,0.299,4.097,0.898
			C109.758,47.99,110.756,48.829,111.534,49.908z"/>
		<path fill="#231F20" d="M121.404,46.901l7.556,16.203h-1.749l-2.548-5.331h-6.98l-2.524,5.331h-1.806l7.655-16.203H121.404z
			 M121.199,50.344l-2.776,5.865h5.54L121.199,50.344z"/>
		<path fill="#231F20" d="M131.461,46.901h3.227c1.851,0,3.1,0.081,3.745,0.242c0.926,0.228,1.682,0.696,2.27,1.404
			c0.587,0.709,0.881,1.599,0.881,2.671c0,1.079-0.286,1.97-0.859,2.671c-0.572,0.701-1.361,1.173-2.368,1.416
			c-0.734,0.176-2.107,0.264-4.119,0.264h-1.156v7.534h-1.619V46.901z M133.08,48.487v5.497l2.742,0.033
			c1.109,0,1.921-0.101,2.435-0.302c0.514-0.201,0.918-0.527,1.212-0.978c0.293-0.451,0.44-0.955,0.44-1.512
			c0-0.542-0.147-1.039-0.44-1.489c-0.294-0.451-0.682-0.771-1.162-0.962c-0.481-0.191-1.269-0.286-2.363-0.286H133.08z"/>
	</g>
	<path fill="#A8B3CC" d="M9.071,21.021C-6.694,34.251,30.918,47.057,30.918,47.057S24.837,7.791,9.071,21.021"/>
	<path fill="#4F6A97" d="M9.336,70.569c6.586,11.408,18.837-10.876,18.837-10.876S2.749,59.162,9.336,70.569"/>
	<path fill="#24437C" d="M26.341,82.15c9.902,3.604,5.951-16.352,5.951-16.352S16.438,78.545,26.341,82.15"/>
	<path fill="#7C8FB1" d="M0,51.246c0,16.642,27.19,0,27.19,0S0,35.884,0,51.246"/>
</g>
</svg>